<svg width="50" height="56" viewBox="0 0 50 56" fill="none" xmlns="http://www.w3.org/2000/svg">
<g id="instagram logo">
<g clip-path="url(#clip0_1_2572)">
<rect width="50" height="56" fill="white"/>
<path id="Vector" d="M25.0117 15.422C17.9135 15.422 12.188 21.0329 12.188 27.9891C12.188 34.9454 17.9135 40.5563 25.0117 40.5563C32.1099 40.5563 37.8354 34.9454 37.8354 27.9891C37.8354 21.0329 32.1099 15.422 25.0117 15.422ZM25.0117 36.1595C20.4247 36.1595 16.6747 32.4954 16.6747 27.9891C16.6747 23.4829 20.4135 19.8188 25.0117 19.8188C29.6099 19.8188 33.3488 23.4829 33.3488 27.9891C33.3488 32.4954 29.5988 36.1595 25.0117 36.1595ZM41.351 14.9079C41.351 16.5376 40.0117 17.8392 38.3599 17.8392C36.697 17.8392 35.3688 16.5267 35.3688 14.9079C35.3688 13.2892 36.7081 11.9767 38.3599 11.9767C40.0117 11.9767 41.351 13.2892 41.351 14.9079ZM49.8443 17.8829C49.6545 13.9563 48.7394 10.4782 45.8041 7.6126C42.88 4.74697 39.3309 3.8501 35.3242 3.65322C31.1947 3.42354 18.8175 3.42354 14.688 3.65322C10.6925 3.83916 7.14341 4.73603 4.20814 7.60166C1.27288 10.4673 0.368861 13.9454 0.167969 17.872C-0.0664062 21.9188 -0.0664062 34.0485 0.167969 38.0954C0.357701 42.022 1.27288 45.5001 4.20814 48.3657C7.14341 51.2313 10.6814 52.1282 14.688 52.3251C18.8175 52.5548 31.1947 52.5548 35.3242 52.3251C39.3309 52.1391 42.88 51.2423 45.8041 48.3657C48.7282 45.5001 49.6434 42.022 49.8443 38.0954C50.0787 34.0485 50.0787 21.9298 49.8443 17.8829ZM44.5095 42.4376C43.6389 44.5813 41.9537 46.2329 39.755 47.097C36.4626 48.3766 28.6501 48.0813 25.0117 48.0813C21.3733 48.0813 13.5497 48.3657 10.2684 47.097C8.08091 46.2438 6.39564 44.5923 5.51395 42.4376C4.20814 39.211 4.50948 31.5548 4.50948 27.9891C4.50948 24.4235 4.21931 16.7563 5.51395 13.5407C6.38448 11.397 8.06975 9.74541 10.2684 8.88134C13.5608 7.60166 21.3733 7.89697 25.0117 7.89697C28.6501 7.89697 36.4738 7.6126 39.755 8.88134C41.9425 9.73447 43.6278 11.386 44.5095 13.5407C45.8153 16.7673 45.5139 24.4235 45.5139 27.9891C45.5139 31.5548 45.8153 39.222 44.5095 42.4376Z" fill="#26AFE4"/>
</g>
<rect x="0.5" y="0.5" width="49" height="55" stroke="white"/>
</g>
<defs>
<clipPath id="clip0_1_2572">
<rect width="50" height="56" fill="white"/>
</clipPath>
</defs>
</svg>
