<svg width="45" height="48" viewBox="0 0 45 48" fill="none" xmlns="http://www.w3.org/2000/svg">
<g id="linkedin logo">
<g clip-path="url(#clip0_1_2576)">
<rect x="0.433594" y="0.78418" width="44.4526" height="47.1188" fill="white"/>
<path id="Vector" d="M10.5262 47.903V16.112H0.99588V47.903H10.5262ZM5.76229 11.7689C9.08569 11.7689 11.1543 9.32771 11.1543 6.27705C11.0924 3.1576 9.08582 0.78418 5.82536 0.78418C2.5654 0.78418 0.433594 3.15765 0.433594 6.27705C0.433594 9.32785 2.50174 11.7689 5.70007 11.7689H5.76199H5.76229ZM15.8013 47.903H25.3316V30.1494C25.3316 29.1992 25.3935 28.2501 25.6452 27.5708C26.3342 25.6725 27.9023 23.7063 30.535 23.7063C33.9836 23.7063 35.3633 26.6216 35.3633 30.8953V47.9028H44.893V29.6741C44.893 19.9092 40.1913 15.3657 33.9209 15.3657C28.7796 15.3657 26.5223 18.5519 25.2682 20.7221H25.3318V16.1114H15.8015C15.9265 19.0944 15.8015 47.9024 15.8015 47.9024L15.8013 47.903Z" fill="#26AFE4"/>
</g>
<rect x="0.933594" y="1.28418" width="43.4526" height="46.1188" stroke="white"/>
</g>
<defs>
<clipPath id="clip0_1_2576">
<rect x="0.433594" y="0.78418" width="44.4526" height="47.1188" fill="white"/>
</clipPath>
</defs>
</svg>
