<svg width="55" height="45" viewBox="0 0 55 45" fill="none" xmlns="http://www.w3.org/2000/svg">
<g id="Twitter logo">
<g clip-path="url(#clip0_1_2580)">
<rect x="0.542969" y="0.925537" width="53.5327" height="43.9775" fill="white"/>
<path id="Vector" d="M54.0757 6.28083C52.0711 7.17442 49.9448 7.76098 47.7676 8.02099C50.0354 6.65327 51.7767 4.48743 52.5966 1.90685C50.4408 3.19416 48.0821 4.10116 45.6225 4.58864C43.619 2.44089 40.7649 1.09863 37.6058 1.09863C31.5403 1.09863 26.6226 6.04684 26.6226 12.1498C26.6226 13.0161 26.7198 13.8595 26.907 14.6685C17.7792 14.2075 9.68661 9.80787 4.26956 3.1216C3.32437 4.75382 2.78277 6.65243 2.78277 8.6775C2.78277 12.5117 4.72187 15.8942 7.66867 17.8762C5.92457 17.8212 4.21884 17.3472 2.6939 16.4937C2.69327 16.54 2.69327 16.5863 2.69327 16.6328C2.69327 21.9873 6.47904 26.4541 11.5032 27.4694C9.88586 27.912 8.18942 27.9767 6.54344 27.6587C7.94094 32.0493 11.9971 35.2443 16.8029 35.3338C13.0441 38.2977 8.30835 40.0646 3.16294 40.0646C2.2763 40.0646 1.40221 40.0122 0.542969 39.9102C5.40336 43.0458 11.1763 44.8754 17.3786 44.8754C37.5803 44.8754 48.6271 28.0354 48.6271 13.4315C48.6271 12.9522 48.6166 12.4756 48.5953 12.0017C50.7454 10.4376 52.6013 8.50035 54.0757 6.28083Z" fill="#26AFE4"/>
</g>
<rect x="1.04297" y="1.42554" width="52.5327" height="42.9775" stroke="white"/>
</g>
<defs>
<clipPath id="clip0_1_2580">
<rect x="0.542969" y="0.925537" width="53.5327" height="43.9775" fill="white"/>
</clipPath>
</defs>
</svg>
